<?xml version="1.0" encoding="utf-8" standalone="no"?>
<!DOCTYPE svg PUBLIC "-//W3C//DTD SVG 1.1//EN"
  "http://www.w3.org/Graphics/SVG/1.1/DTD/svg11.dtd">
<svg xmlns:xlink="http://www.w3.org/1999/xlink" width="288pt" height="216pt" viewBox="0 0 288 216" xmlns="http://www.w3.org/2000/svg" version="1.1">
 <metadata>
  <rdf:RDF xmlns:dc="http://purl.org/dc/elements/1.1/" xmlns:cc="http://creativecommons.org/ns#" xmlns:rdf="http://www.w3.org/1999/02/22-rdf-syntax-ns#">
   <cc:Work>
    <dc:type rdf:resource="http://purl.org/dc/dcmitype/StillImage"/>
    <dc:date>2024-10-21T09:45:14.627336</dc:date>
    <dc:format>image/svg+xml</dc:format>
    <dc:creator>
     <cc:Agent>
      <dc:title>Matplotlib v3.9.2, https://matplotlib.org/</dc:title>
     </cc:Agent>
    </dc:creator>
   </cc:Work>
  </rdf:RDF>
 </metadata>
 <defs>
  <style type="text/css">*{stroke-linejoin: round; stroke-linecap: butt}</style>
 </defs>
 <g id="figure_1">
  <g id="patch_1">
   <path d="M 0 216 
L 288 216 
L 288 0 
L 0 0 
L 0 216 
z
" style="fill: none"/>
  </g>
  <g id="axes_1">
   <g id="patch_2">
    <path d="M 36 164.88 
L 259.2 164.88 
L 259.2 53.28 
L 36 53.28 
L 36 164.88 
z
" style="fill: none"/>
   </g>
   <g id="patch_3">
    <path d="M 236.88 122.472 
C 237.471933 122.472 238.039702 122.236822 238.458262 121.818262 
C 238.876822 121.399702 239.112 120.831933 239.112 120.24 
C 239.112 119.648067 238.876822 119.080298 238.458262 118.661738 
C 238.039702 118.243178 237.471933 118.008 236.88 118.008 
C 236.288067 118.008 235.720298 118.243178 235.301738 118.661738 
C 234.883178 119.080298 234.648 119.648067 234.648 120.24 
C 234.648 120.831933 234.883178 121.399702 235.301738 121.818262 
C 235.720298 122.236822 236.288067 122.472 236.88 122.472 
z
" clip-path="url(#pf3d6ceea01)" style="fill: #ffffff; stroke: #ffffff; stroke-linejoin: miter"/>
   </g>
   <g id="patch_4">
    <path d="M 58.32 122.472 
C 58.911933 122.472 59.479702 122.236822 59.898262 121.818262 
C 60.316822 121.399702 60.552 120.831933 60.552 120.24 
C 60.552 119.648067 60.316822 119.080298 59.898262 118.661738 
C 59.479702 118.243178 58.911933 118.008 58.32 118.008 
C 57.728067 118.008 57.160298 118.243178 56.741738 118.661738 
C 56.323178 119.080298 56.088 119.648067 56.088 120.24 
C 56.088 120.831933 56.323178 121.399702 56.741738 121.818262 
C 57.160298 122.236822 57.728067 122.472 58.32 122.472 
z
" clip-path="url(#pf3d6ceea01)" style="fill: #ffffff; stroke: #ffffff; stroke-linejoin: miter"/>
   </g>
   <g id="patch_5">
    <path d="M 75.06 120.24 
C 75.06 118.041723 74.626987 115.864822 73.785743 113.833879 
C 72.944499 111.802937 71.711384 109.957449 70.156968 108.403032 
" clip-path="url(#pf3d6ceea01)" style="fill: none; stroke: #ffffff; stroke-width: 0.5; stroke-linejoin: miter"/>
   </g>
   <g id="patch_6">
    <path d="M 220.14 120.24 
C 220.14 122.438277 220.573013 124.615178 221.414257 126.646121 
C 222.255501 128.677063 223.488616 130.522551 225.043032 132.076968 
" clip-path="url(#pf3d6ceea01)" style="fill: none; stroke: #ffffff; stroke-width: 0.5; stroke-linejoin: miter"/>
   </g>
   <g id="matplotlib.axis_1"/>
   <g id="matplotlib.axis_2"/>
   <g id="line2d_1">
    <path d="M 58.32 120.24 
L 236.88 120.24 
" clip-path="url(#pf3d6ceea01)" style="fill: none; stroke-dasharray: 1.85,0.8; stroke-dashoffset: 0; stroke: #ffffff; stroke-width: 0.5"/>
   </g>
   <g id="line2d_2">
    <path d="M 58.32 120.24 
L 58.32 75.6 
" clip-path="url(#pf3d6ceea01)" style="fill: none; stroke-dasharray: 1.85,0.8; stroke-dashoffset: 0; stroke: #ffffff; stroke-width: 0.5"/>
   </g>
   <g id="line2d_3">
    <path d="M 236.88 120.24 
L 236.88 75.6 
" clip-path="url(#pf3d6ceea01)" style="fill: none; stroke-dasharray: 1.85,0.8; stroke-dashoffset: 0; stroke: #ffffff; stroke-width: 0.5"/>
   </g>
   <g id="patch_7">
    <path d="M 235.465928 121.654072 
Q 225.721142 131.398858 216.371641 140.748359 
" style="fill: none; stroke: #ffffff; stroke-width: 0.5; stroke-linecap: round"/>
    <path d="M 220.614282 139.334146 
L 216.371641 140.748359 
L 217.785854 136.505718 
z
" style="fill: #ffffff; stroke: #ffffff; stroke-width: 0.5; stroke-linecap: round"/>
   </g>
   <g id="text_1">
    <!-- $v_0$ -->
    <g style="fill: #ffffff" transform="translate(206.532961 139.590396) scale(0.06 -0.06)">
     <defs>
      <path id="CMMI12-76" d="M 2925 2389 
C 2925 2791 2720 2816 2669 2816 
C 2515 2816 2374 2663 2374 2535 
C 2374 2459 2419 2414 2445 2389 
C 2509 2331 2675 2159 2675 1827 
C 2675 1558 2291 64 1523 64 
C 1133 64 1056 390 1056 626 
C 1056 945 1203 1392 1376 1852 
C 1478 2114 1504 2178 1504 2305 
C 1504 2574 1312 2816 998 2816 
C 410 2816 173 1890 173 1839 
C 173 1814 198 1782 243 1782 
C 301 1782 307 1807 333 1897 
C 486 2446 736 2689 979 2689 
C 1037 2689 1146 2689 1146 2478 
C 1146 2312 1075 2127 979 1884 
C 672 1067 672 869 672 715 
C 672 575 691 313 890 134 
C 1120 -64 1440 -64 1498 -64 
C 2560 -64 2925 2024 2925 2389 
z
" transform="scale(0.015625)"/>
      <path id="CMR17-30" d="M 2688 2025 
C 2688 2416 2682 3080 2413 3591 
C 2176 4039 1798 4198 1466 4198 
C 1158 4198 768 4058 525 3597 
C 269 3118 243 2524 243 2025 
C 243 1661 250 1106 448 619 
C 723 -39 1216 -128 1466 -128 
C 1760 -128 2208 -7 2470 600 
C 2662 1042 2688 1559 2688 2025 
z
M 1466 -26 
C 1056 -26 813 325 723 812 
C 653 1188 653 1738 653 2096 
C 653 2588 653 2997 736 3387 
C 858 3929 1216 4096 1466 4096 
C 1728 4096 2067 3923 2189 3400 
C 2272 3036 2278 2607 2278 2096 
C 2278 1680 2278 1169 2202 792 
C 2067 95 1690 -26 1466 -26 
z
" transform="scale(0.015625)"/>
     </defs>
     <use xlink:href="#CMMI12-76" transform="scale(0.996264)"/>
     <use xlink:href="#CMR17-30" transform="translate(47.160581 -14.943915) scale(0.697382)"/>
    </g>
   </g>
   <g id="text_2">
    <!-- $m$ -->
    <g style="fill: #ffffff" transform="translate(242.539024 121.734396) scale(0.06 -0.06)">
     <defs>
      <path id="CMMI12-6d" d="M 1318 1871 
C 1331 1910 1491 2229 1728 2433 
C 1894 2586 2112 2689 2362 2689 
C 2618 2689 2707 2497 2707 2242 
C 2707 2203 2707 2076 2630 1775 
L 2470 1118 
C 2419 926 2298 453 2285 383 
C 2259 287 2221 121 2221 96 
C 2221 6 2291 -64 2387 -64 
C 2579 -64 2611 83 2669 313 
L 3053 1839 
C 3066 1890 3398 2689 4102 2689 
C 4358 2689 4448 2497 4448 2242 
C 4448 1884 4198 1188 4058 805 
C 4000 651 3968 568 3968 453 
C 3968 166 4166 -64 4474 -64 
C 5069 -64 5293 875 5293 913 
C 5293 945 5267 971 5229 971 
C 5171 971 5165 952 5133 843 
C 4986 332 4749 64 4493 64 
C 4429 64 4326 64 4326 269 
C 4326 436 4403 640 4429 710 
C 4544 1018 4832 1773 4832 2145 
C 4832 2528 4608 2816 4122 2816 
C 3693 2816 3347 2574 3091 2197 
C 3072 2542 2861 2816 2381 2816 
C 1811 2816 1510 2415 1395 2255 
C 1376 2618 1114 2816 832 2816 
C 646 2816 499 2727 378 2484 
C 262 2254 173 1865 173 1839 
C 173 1814 198 1782 243 1782 
C 294 1782 301 1788 339 1935 
C 435 2312 557 2689 813 2689 
C 960 2689 1011 2586 1011 2395 
C 1011 2254 947 2005 902 1807 
L 723 1118 
C 698 996 627 709 595 594 
C 550 428 480 128 480 96 
C 480 6 550 -64 646 -64 
C 723 -64 813 -26 864 70 
C 877 102 934 326 966 453 
L 1107 1028 
L 1318 1871 
z
" transform="scale(0.015625)"/>
     </defs>
     <use xlink:href="#CMMI12-6d" transform="scale(0.996264)"/>
    </g>
   </g>
   <g id="patch_8">
    <path d="M 59.734072 118.825928 
Q 69.478858 109.081142 78.828359 99.731641 
" style="fill: none; stroke: #ffffff; stroke-width: 0.5; stroke-linecap: round"/>
    <path d="M 74.585718 101.145854 
L 78.828359 99.731641 
L 77.414146 103.974282 
z
" style="fill: #ffffff; stroke: #ffffff; stroke-width: 0.5; stroke-linecap: round"/>
   </g>
   <g id="text_3">
    <!-- $v_0$ -->
    <g style="fill: #ffffff" transform="translate(81.540961 103.878396) scale(0.06 -0.06)">
     <use xlink:href="#CMMI12-76" transform="scale(0.996264)"/>
     <use xlink:href="#CMR17-30" transform="translate(47.160581 -14.943915) scale(0.697382)"/>
    </g>
   </g>
   <g id="text_4">
    <!-- $m$ -->
    <g style="fill: #ffffff" transform="translate(46.123024 121.734396) scale(0.06 -0.06)">
     <use xlink:href="#CMMI12-6d" transform="scale(0.996264)"/>
    </g>
   </g>
   <g id="patch_9">
    <path d="M 236.550599 75.6 
Q 147.600095 75.6 58.649591 75.6 
" style="fill: none; stroke: #ffffff; stroke-width: 0.5; stroke-linecap: round"/>
    <path d="M 232.550599 73.6 
L 236.550599 75.6 
L 232.550599 77.6 
z
" style="fill: #ffffff; stroke: #ffffff; stroke-width: 0.5; stroke-linecap: round"/>
    <path d="M 62.649591 77.6 
L 58.649591 75.6 
L 62.649591 73.6 
z
" style="fill: #ffffff; stroke: #ffffff; stroke-width: 0.5; stroke-linecap: round"/>
   </g>
   <g id="text_5">
    <!-- $d$ -->
    <g style="fill: #ffffff" transform="translate(145.679779 72.630396) scale(0.06 -0.06)">
     <defs>
      <path id="CMMI12-64" d="M 3219 4257 
C 3226 4282 3238 4320 3238 4352 
C 3238 4416 3174 4416 3162 4416 
C 3155 4416 2842 4388 2810 4380 
C 2701 4373 2605 4358 2490 4358 
C 2330 4345 2285 4339 2285 4224 
C 2285 4160 2336 4160 2426 4160 
C 2739 4160 2746 4103 2746 4040 
C 2746 4002 2733 3952 2726 3933 
L 2336 2395 
C 2266 2561 2093 2816 1760 2816 
C 1037 2816 256 1884 256 939 
C 256 307 627 -64 1062 -64 
C 1414 -64 1715 211 1894 422 
C 1958 45 2259 -64 2451 -64 
C 2643 -64 2797 51 2912 281 
C 3014 498 3104 888 3104 913 
C 3104 945 3078 971 3040 971 
C 2982 971 2976 939 2950 843 
C 2854 466 2733 64 2470 64 
C 2285 64 2272 229 2272 357 
C 2272 382 2272 515 2317 694 
L 3219 4257 
z
M 1926 760 
C 1894 651 1894 639 1805 517 
C 1664 338 1382 64 1082 64 
C 819 64 672 300 672 677 
C 672 1028 870 1743 992 2012 
C 1210 2459 1510 2689 1760 2689 
C 2182 2689 2266 2165 2266 2114 
C 2266 2108 2246 2024 2240 2012 
L 1926 760 
z
" transform="scale(0.015625)"/>
     </defs>
     <use xlink:href="#CMMI12-64" transform="scale(0.996264)"/>
    </g>
   </g>
   <g id="text_6">
    <!-- $\alpha$ -->
    <g style="fill: #ffffff" transform="translate(67.075481 117.270396) scale(0.06 -0.06)">
     <defs>
      <path id="CMMI12-b" d="M 2963 1616 
C 2963 2235 2611 2815 1933 2815 
C 1094 2815 256 1902 256 996 
C 256 441 602 -64 1254 -64 
C 1651 -64 2125 89 2579 472 
C 2669 115 2867 -64 3142 -64 
C 3488 -64 3661 294 3661 377 
C 3661 434 3616 434 3597 434 
C 3546 434 3539 415 3520 364 
C 3462 204 3315 64 3162 64 
C 2963 64 2963 472 2963 862 
C 3616 1641 3770 2446 3770 2452 
C 3770 2510 3718 2510 3699 2510 
C 3642 2510 3635 2491 3610 2376 
C 3526 2095 3360 1597 2963 1073 
L 2963 1616 
z
M 2560 626 
C 1997 121 1491 64 1267 64 
C 813 64 685 466 685 766 
C 685 1040 826 1692 1024 2044 
C 1286 2491 1645 2688 1933 2688 
C 2554 2688 2554 1877 2554 1341 
C 2554 1182 2547 1016 2547 856 
C 2547 728 2554 696 2560 626 
z
" transform="scale(0.015625)"/>
     </defs>
     <use xlink:href="#CMMI12-b" transform="scale(0.996264)"/>
    </g>
   </g>
   <g id="text_7">
    <!-- $\alpha$ -->
    <g style="fill: #ffffff" transform="translate(223.315481 126.198396) scale(0.06 -0.06)">
     <use xlink:href="#CMMI12-b" transform="scale(0.996264)"/>
    </g>
   </g>
  </g>
 </g>
 <defs>
  <clipPath id="pf3d6ceea01">
   <rect x="36" y="53.28" width="223.2" height="111.6"/>
  </clipPath>
 </defs>
</svg>
